<?xml version="1.0" ?><!DOCTYPE svg  PUBLIC '-//W3C//DTD SVG 1.1//EN'  'http://www.w3.org/Graphics/SVG/1.1/DTD/svg11.dtd'><svg enable-background="new 0 0 256 256" height="256px" id="Layer_1" version="1.1" viewBox="0 0 256 256" width="256px" xml:space="preserve" xmlns="http://www.w3.org/2000/svg" xmlns:xlink="http://www.w3.org/1999/xlink"><rect fill="#077DB7" height="64" width="64" y="97"/><path d="M64,97h192v64H64V97z M84.056,141.661c2.598,0,4.577-1.462,4.577-4.318c0-2.227-1.698-3.823-3.216-5.488  l-2.845-3.092c-0.934-1.012-1.586-1.991-1.586-3.082c0-1.743,1.158-2.575,2.8-2.575c1.844,0,2.89,1.484,3.171,3.295l0.022,0.158  l1.439-0.45l-0.034-0.18c-0.506-2.71-2.047-4.195-4.6-4.195c-2.575,0-4.453,1.608-4.453,4.172c0,1.451,0.911,2.665,2.046,3.869  l3.025,3.183c1.406,1.484,2.598,2.89,2.598,4.532c0,1.776-0.99,2.8-2.755,2.8c-2.294,0-3.216-2.002-3.452-4.037l-1.507,0.438  C79.693,139.355,81.222,141.661,84.056,141.661z M92.832,141.357v-9.401h5.96v9.401h1.709v-19.354h-1.709v8.76h-5.96v-8.76h-1.709  v19.354H92.832z M105.432,136.319h4.465l0.967,5.038h1.732l-3.824-19.354h-2.227c-1.811,8.986-2.013,10.38-3.823,19.354h1.72  L105.432,136.319z M107.647,123.78l2.036,11.403h-4.048L107.647,123.78z M116.524,141.357v-9.446h3.25l2.823,9.446h1.822  l-2.991-9.66c2.125-0.775,2.699-2.71,2.699-4.689c0-2.688-0.787-5.004-4.149-5.004h-5.162v19.354H116.524z M116.524,123.375h3.441  c2.001,0,2.452,1.653,2.452,3.576c0,1.811-0.405,3.587-2.452,3.587h-3.441V123.375z M133.589,141.357v-1.372h-5.039v-7.984h3.599  v-1.293h-3.599v-7.333h5.039v-1.372h-6.748v19.354H133.589z M144.312,141.661c3.846,0,4.937-2.665,4.937-5.915v-8.108  c0-3.272-1.181-5.904-4.937-5.904c-3.757,0-4.938,2.632-4.938,5.904v8.108C139.374,138.996,140.465,141.661,144.312,141.661z   M144.312,140.289c-2.52,0-3.228-1.867-3.228-4.161v-8.873c0-2.294,0.708-4.15,3.228-4.15c2.519,0,3.228,1.855,3.228,4.15v8.873  C147.539,138.422,146.83,140.289,144.312,140.289z M153.706,141.357v-15.002l6.14,15.002h1.282v-19.354h-1.45v15.328l-6.129-15.328  h-1.316v19.354H153.706z M175.293,141.357v-1.372h-5.409v-17.982h-1.71v19.354H175.293z M178.681,141.357v-19.354h-1.709v19.354  H178.681z M183.451,141.357v-15.002l6.14,15.002h1.282v-19.354h-1.45v15.328l-6.129-15.328h-1.316v19.354H183.451z M195.871,141.357  v-6.826l1.889-3.396l4.139,10.223h1.811l-4.914-11.369l4.003-7.985h-1.766l-5.161,10.177v-10.177h-1.71v19.354H195.871z   M212.271,141.357v-1.372h-5.038v-7.984h3.599v-1.293h-3.599v-7.333h5.038v-1.372h-6.748v19.354H212.271z M218.955,141.357  c3.846,0,4.937-2.587,4.937-5.713v-7.872c0-3.205-1.181-5.769-4.937-5.769h-4.353v19.354H218.955z M216.313,123.375h2.643  c2.519,0,3.228,1.788,3.228,4.015v8.637c0,2.159-0.709,3.958-3.228,3.958h-2.643V123.375z M228.574,141.357v-19.354h-1.709v19.354  H228.574z M233.345,141.357v-15.002l6.14,15.002h1.282v-19.354h-1.45v15.328l-6.129-15.328h-1.316v19.354H233.345z" fill="#0E6286"/><g><rect fill="#FFFFFF" height="29.439" width="8.96" x="12.8" y="117.48"/><path d="M43.523,117.48c-5.123,0-6.542,1.679-7.684,3.84v-3.84h-8.96v29.439h8.96v-16.64c0-2.561,0-5.12,4.48-5.12   c4.479,0,4.479,2.56,4.479,5.12v16.64h8.96v-16.64C53.76,122.6,52.48,117.48,43.523,117.48z" fill="#FFFFFF"/><circle cx="17.28" cy="110.44" fill="#FFFFFF" r="4.48"/></g></svg>